<svg xmlns="http://www.w3.org/2000/svg" width="1024" height="1024" viewBox="0 0 1024 1024"><path d="M509.405-.318q3.19.008 6.381.011C536.01-.271 555.947.131 576 3l3.795.504C663.718 14.738 741.742 46.582 828 108l2.083 1.659c7.348 5.853 14.6 11.776 21.51 18.146a296 296 0 0 0 6.105 5.39c3.993 3.492 7.794 7.136 11.548 10.883l1.986 1.976q2.063 2.056 4.122 4.114a2136 2136 0 0 0 6.226 6.187c6.571 6.544 12.905 13.083 18.632 20.39 1.76 2.22 3.612 4.303 5.538 6.38 6.21 6.915 11.675 14.448 17.25 21.875l1.45 1.916C932.525 217.584 939.874 228.68 947 240l1.52 2.41c9.023 14.41 16.855 29.401 24.48 44.59l1.415 2.8c23.863 47.532 38.524 99.83 45.897 152.387l.447 3.172A417 417 0 0 1 1022 456l.261 2.435c1.765 16.982 2.103 33.91 2.057 50.97a4488 4488 0 0 0-.011 6.381c-.036 20.224-.438 40.161-3.307 60.214l-.504 3.795C1009.262 663.718 977.418 741.742 916 828l-1.659 2.083c-5.853 7.348-11.776 14.6-18.146 21.51a296 296 0 0 0-5.39 6.105c-3.492 3.993-7.136 7.794-10.883 11.548l-1.976 1.986q-2.055 2.063-4.114 4.122-3.1 3.107-6.187 6.226c-6.544 6.571-13.083 12.905-20.39 18.632-2.22 1.76-4.303 3.612-6.38 5.538-6.915 6.21-14.448 11.675-21.875 17.25l-1.916 1.45C806.416 932.525 795.32 939.874 784 947l-2.41 1.52c-14.41 9.023-29.4 16.855-44.59 24.48l-2.8 1.415c-47.532 23.863-99.83 38.524-152.388 45.897l-3.17.447c-3.543.464-7.09.868-10.642 1.241l-2.435.261c-16.982 1.765-33.91 2.103-50.97 2.057a4488 4488 0 0 0-6.381-.011c-20.224-.036-40.161-.438-60.214-3.307l-3.795-.504C360.282 1009.262 282.258 977.418 196 916l-2.083-1.659c-7.348-5.853-14.6-11.776-21.51-18.146a296 296 0 0 0-6.105-5.39c-3.993-3.492-7.794-7.136-11.548-10.883l-1.986-1.976q-2.063-2.055-4.122-4.114a2136 2136 0 0 0-6.226-6.187c-6.571-6.544-12.905-13.083-18.632-20.39-1.76-2.22-3.612-4.303-5.538-6.38-6.21-6.915-11.675-14.448-17.25-21.875l-1.45-1.916C91.475 806.416 84.126 795.32 77 784l-1.52-2.41C66.457 767.18 58.625 752.19 51 737l-1.415-2.8c-23.863-47.532-38.524-99.83-45.898-152.388l-.446-3.17A419 419 0 0 1 2 568l-.261-2.435c-1.765-16.982-2.103-33.91-2.057-50.97q.008-3.19.011-6.381C-.271 487.99.131 468.053 3 448l.504-3.795C14.738 360.282 46.582 282.258 108 196l1.659-2.083c5.853-7.348 11.776-14.6 18.146-21.51a296 296 0 0 0 5.39-6.105c3.492-3.993 7.136-7.794 10.883-11.548l1.976-1.986q2.055-2.063 4.114-4.122a2136 2136 0 0 0 6.187-6.226c6.544-6.571 13.083-12.905 20.39-18.632 2.22-1.76 4.303-3.612 6.38-5.538 6.915-6.21 14.448-11.675 21.875-17.25l1.916-1.45C217.584 91.475 228.68 84.126 240 77l2.41-1.52C256.82 66.457 271.81 58.625 287 51l2.8-1.415c47.532-23.863 99.83-38.524 152.387-45.898l3.172-.446C448.9 2.777 452.447 2.373 456 2l2.435-.261c16.982-1.765 33.91-2.103 50.97-2.057"/><path d="m510.313 637.625 2.176.016c39.706.343 73.846 15.377 101.726 43.601 28.806 31.145 37.293 71.492 35.884 112.653-1.697 36.092-18.723 71.313-45.037 95.918-32.708 28.05-71.859 35.91-113.867 32.992-4.85-.492-9.504-1.476-14.195-2.805l-2.383-.652C455.27 913.901 437.26 905.17 422 892l-2.914-2.46C392.105 865.976 376.948 831.322 374 796c-.333-5.851-.413-11.703-.437-17.562l-.02-2.128C373.36 743.832 385.052 710.833 406 686l2.246-2.672c16.177-18.57 36.064-31.22 59.254-39.14l2.44-.843c13.328-4.334 26.435-5.886 40.373-5.72m93.111-502.681A739 739 0 0 1 608 139l2.176 1.918c23.305 21.858 38.403 56.829 40.001 88.601.678 41.208-5.717 82.229-35.2 113.383-2.126 2.189-2.126 2.189-4.352 5.16-4.071 4.556-8.803 8.205-13.625 11.938-1.158.9-1.158.9-2.34 1.816C580.75 372.065 565.427 378.058 549 383l-3.305 1.066c-10.136 2.561-20.157 3.26-30.579 3.195-2.048-.011-4.096 0-6.145.012-12.015.014-23.725-1.345-35.346-4.46l-2.412-.643c-8.118-2.266-15.65-5.48-23.213-9.17l-2.945-1.43c-16.59-8.56-30.748-20.78-42.055-35.57l-2.055-2.613c-19.544-25.666-27.421-57.944-27.258-89.762l.005-2.186c.04-10.771.63-20.96 3.308-31.439l.879-3.813C382.95 185.475 392.254 166.295 406 150l2.246-2.672C422.045 131.488 438.1 120.747 457 112l2.527-1.207c46.829-20.657 105.998-8.531 143.897 24.15" fill="#fefefe"/></svg>