<svg xmlns="http://www.w3.org/2000/svg" width="903" height="903" viewBox="0 0 1080 1080" xml:space="preserve"><path style="stroke:none;stroke-width:0;stroke-dasharray:none;stroke-linecap:butt;stroke-dashoffset:0;stroke-linejoin:miter;stroke-miterlimit:4;fill:#34655d;fill-rule:evenodd;opacity:1" vector-effect="non-scaling-stroke" transform="translate(27.1 27.457)" d="M38.561 1.603C20.724 5.917 4.855 22.517 1.091 40.799.312 44.582 0 179.584 0 512.655 0 935.14.15 979.792 1.584 985.356c4.707 18.257 19.459 32.85 37.509 37.104 5.666 1.336 60.332 1.51 472.907 1.51 414.824 0 467.218-.169 472.978-1.526 12.083-2.848 23.174-10.802 30.654-21.983 3.497-5.228 7.368-14.913 7.368-18.436 0-1.114.45-2.025 1-2.025.666 0 .917-156.751.752-468.75l-.249-468.75L1024 475c-.277 237.875-.615 429.768-.752 426.428-.136-3.339-.978-8.289-1.871-11-1.497-4.547-16.42-19.736-193.239-196.679L636.521 501.998 814.64 323.749C928.643 209.664 993.702 143.851 995.375 140.92c9.092-15.922 9.668-33.873 1.604-50.037-2.668-5.347-7.509-10.733-29.832-33.181-24.287-24.425-27.325-27.139-34.299-30.644-14.955-7.513-30.524-7.669-45.732-.457-7.537 3.574-9.477 5.472-186.369 182.246L521.994 387.482 330.747 196.34C225.561 91.212 137.967 4.431 136.094 3.493 130.905.894 116.899.067 79 .119 52.568.155 43.111.503 38.561 1.603M.496 512.5c0 257.95.114 363.326.254 234.168.14-129.157.14-340.207 0-469C.61 148.876.496 254.55.496 512.5M161 512.249v236.25l118.247-118.247 118.248-118.248-117.498-117.838c-64.623-64.811-117.835-117.912-118.247-118.002S161 382.312 161 512.249M393.5 745 275.503 863h472.994L630.5 745C565.602 680.1 512.277 627 512 627s-53.602 53.1-118.5 118"/><path style="stroke:none;stroke-width:1;stroke-dasharray:none;stroke-linecap:butt;stroke-dashoffset:0;stroke-linejoin:miter;stroke-miterlimit:4;fill:#a2dae0;fill-rule:nonzero;opacity:1" transform="matrix(3.3679 0 0 1.6175 538.68 773.696)" d="M-75 75 0-75 75 75z"/><path style="stroke:none;stroke-width:1;stroke-dasharray:none;stroke-linecap:butt;stroke-dashoffset:0;stroke-linejoin:miter;stroke-miterlimit:4;fill:#ed0101;fill-rule:nonzero;opacity:1" transform="matrix(.0208 3.3678 -1.6175 .01 307.516 536.557)" d="M-75 75 0-75 75 75z"/></svg>